<svg xmlns="http://www.w3.org/2000/svg" xmlns:xlink="http://www.w3.org/1999/xlink" width="256" zoomAndPan="magnify" viewBox="0 0 192 191.999996" height="256" preserveAspectRatio="xMidYMid meet" version="1.0"><defs><clipPath id="dde57d7a28"><path d="M 9 5 L 116 5 L 116 182 L 9 182 Z M 9 5 " clip-rule="nonzero"/></clipPath><clipPath id="aeacef1741"><path d="M 9.0625 5.183594 L 143.6875 31.910156 L 113.746094 182.71875 L -20.875 155.992188 Z M 9.0625 5.183594 " clip-rule="nonzero"/></clipPath><clipPath id="764bc0f1b9"><path d="M 9.0625 5.183594 L 143.6875 31.910156 L 113.746094 182.71875 L -20.875 155.992188 Z M 9.0625 5.183594 " clip-rule="nonzero"/></clipPath><clipPath id="7b7fefa8c2"><path d="M 109 104 L 171 104 L 171 170 L 109 170 Z M 109 104 " clip-rule="nonzero"/></clipPath><clipPath id="7cfc5c6045"><path d="M 107.070312 105.75 L 170.789062 103.769531 L 172.773438 167.488281 L 109.054688 169.46875 Z M 107.070312 105.75 " clip-rule="nonzero"/></clipPath><clipPath id="2c40b4b9e8"><path d="M 107.070312 105.75 L 170.789062 103.769531 L 172.773438 167.488281 L 109.054688 169.46875 Z M 107.070312 105.75 " clip-rule="nonzero"/></clipPath></defs><rect x="-19.2" width="230.4" fill="#ffffff" y="-19.2" height="230.399995" fill-opacity="1"/><rect x="-19.2" width="230.4" fill="#4bab13" y="-19.2" height="230.399995" fill-opacity="1"/><g clip-path="url(#dde57d7a28)"><g clip-path="url(#aeacef1741)"><g clip-path="url(#764bc0f1b9)"><path fill="#ffffff" d="M 105.648438 178.78125 C 103.613281 137.183594 105.65625 107.058594 78.378906 74.871094 C 77.546875 73.851562 76.941406 73.171875 76.757812 73.078125 C 76.589844 73.34375 77.394531 74.339844 77.753906 75.027344 C 86.394531 88.121094 100.269531 113.574219 94.925781 128.867188 C 89.007812 140.375 69.742188 131.917969 62.082031 126.382812 C 40.050781 111.621094 30.371094 86.859375 25.988281 61.828125 C 23.042969 48.53125 21.382812 35.214844 17.390625 22.097656 C 16.207031 17.585938 13.097656 12.421875 10.25 7.929688 C 8.996094 5.546875 10.617188 5.492188 12.300781 6.046875 C 18.285156 8.011719 24.003906 9.820312 30.15625 11.617188 C 68.445312 21.199219 99.714844 44.734375 109.976562 83.9375 C 114.199219 98.132812 115 114.421875 115.703125 132.914062 C 115.921875 145.640625 115.46875 162.636719 114.195312 176.703125 C 113.980469 178.863281 114.039062 181.472656 111.472656 181.453125 C 109.65625 181.363281 106.921875 181.015625 105.867188 179.257812 Z M 105.648438 178.78125 " fill-opacity="1" fill-rule="nonzero"/></g></g></g><g clip-path="url(#7b7fefa8c2)"><g clip-path="url(#7cfc5c6045)"><g clip-path="url(#2c40b4b9e8)"><path fill="#ffffff" d="M 109.007812 167.96875 C 110.222656 156.460938 111.78125 145.972656 114.917969 135.316406 C 118.636719 120.378906 130.191406 108.476562 145.269531 105.773438 C 152.066406 104.371094 161.039062 104.902344 168.207031 104.460938 C 168.992188 104.457031 169.550781 104.355469 170.367188 104.363281 C 170.609375 104.371094 170.773438 104.414062 170.824219 104.503906 C 170.832031 105.027344 169.9375 105.515625 169.46875 106.007812 C 164.289062 110.941406 162.875 115.75 159.878906 121.683594 C 155.527344 131.402344 151.007812 139.578125 144.273438 144.753906 C 139.640625 148.859375 124.007812 156.007812 120.726562 147.460938 C 119.847656 141.453125 127.558594 131.957031 131.652344 127.660156 C 132.199219 127.070312 135.722656 123.488281 133.257812 125.414062 C 128.871094 128.910156 124.730469 133.691406 122.011719 138.390625 C 118.789062 144.011719 116.15625 152.601562 113.953125 164.386719 C 113.601562 166.59375 113.234375 169.578125 110.429688 169.164062 C 109.785156 169.175781 109.175781 168.738281 109.082031 168.296875 Z M 109.007812 167.96875 " fill-opacity="1" fill-rule="nonzero"/></g></g></g></svg>